<?xml version="1.0" standalone="no"?>
<!DOCTYPE svg PUBLIC "-//W3C//DTD SVG 20010904//EN"
 "http://www.w3.org/TR/2001/REC-SVG-20010904/DTD/svg10.dtd">
<svg version="1.0" xmlns="http://www.w3.org/2000/svg"
 width="259.000000pt" height="93.000000pt" viewBox="0 0 259.000000 93.000000"
 preserveAspectRatio="xMidYMid meet">

<g transform="translate(0.000000,93.000000) scale(0.100000,-0.100000)"
fill="#000000" stroke="none">
<path d="M0 465 l0 -465 1295 0 1295 0 0 465 0 465 -1295 0 -1295 0 0 -465z
m1038 263 c7 -7 12 -25 12 -40 0 -27 -2 -28 -45 -28 -50 0 -62 13 -51 55 5 20
13 25 39 25 18 0 38 -5 45 -12z m133 -18 c4 -14 7 -51 8 -83 l1 -58 28 14 c69
35 125 28 178 -24 44 -43 60 -112 45 -191 -13 -74 -32 -102 -87 -129 -43 -20
-47 -21 -106 -6 -41 10 -68 13 -79 6 -10 -5 -31 -9 -48 -9 l-31 0 0 248 c0
137 3 252 7 256 4 4 23 6 42 4 28 -2 37 -8 42 -28z m369 11 c5 -11 10 -29 10
-41 0 -19 -5 -21 -47 -18 -44 3 -48 5 -51 31 -3 21 2 29 20 36 36 15 56 13 68
-8z m-679 -21 c13 -7 19 -21 19 -43 0 -52 12 -60 92 -66 l73 -6 3 -171 2 -171
-74 -7 c-98 -9 -153 1 -172 30 -10 15 -19 65 -24 141 -5 65 -9 119 -9 119 -1
1 -12 5 -26 8 -33 8 -33 43 0 58 25 11 31 25 37 78 2 16 11 26 28 31 14 4 26
7 28 8 2 1 12 -4 23 -9z m995 -119 c39 -24 44 -47 44 -211 l0 -128 -29 -7
c-17 -3 -39 -1 -51 5 -14 8 -31 8 -58 0 -67 -18 -127 -13 -160 15 -36 31 -46
66 -32 111 14 42 47 60 143 80 39 8 74 17 79 20 13 8 9 41 -8 58 -22 23 -60
20 -102 -9 -21 -14 -51 -25 -69 -25 -28 0 -33 4 -33 23 0 23 27 54 65 75 11 6
56 12 100 12 61 0 87 -5 111 -19z m-306 -172 l0 -182 -42 7 c-23 4 -44 9 -46
11 -2 2 -6 80 -9 174 l-6 171 51 0 52 0 0 -181z"/>
<path d="M1217 519 c-22 -13 -47 -68 -47 -105 0 -67 60 -131 107 -113 48 18
74 99 53 163 -19 57 -68 81 -113 55z"/>
<path d="M887 524 c-4 -4 -7 -46 -7 -94 0 -93 12 -125 46 -118 17 3 19 12 19
108 0 105 0 105 -25 108 -14 2 -29 0 -33 -4z"/>
<path d="M1710 386 c-31 -11 -35 -17 -35 -47 0 -33 1 -34 47 -37 39 -3 49 1
62 20 9 12 16 35 16 50 0 24 -4 28 -27 27 -16 0 -44 -6 -63 -13z"/>
</g>
</svg>
