<?xml version="1.0" standalone="no"?>
<!DOCTYPE svg PUBLIC "-//W3C//DTD SVG 20010904//EN"
 "http://www.w3.org/TR/2001/REC-SVG-20010904/DTD/svg10.dtd">
<svg version="1.0" xmlns="http://www.w3.org/2000/svg"
 width="211.000000pt" height="73.000000pt" viewBox="0 0 211.000000 73.000000"
 preserveAspectRatio="xMidYMid meet">

<g transform="translate(0.000000,73.000000) scale(0.100000,-0.100000)"
fill="#000000" stroke="none">
<path d="M70 350 l0 -330 995 0 995 0 0 330 0 330 -995 0 -995 0 0 -330z m768
193 c3 -32 2 -33 -37 -33 -38 0 -41 2 -41 28 0 37 8 44 45 40 26 -3 30 -7 33
-35z m86 31 c12 -5 16 -21 16 -70 l0 -65 30 16 c44 23 94 19 128 -10 41 -35
55 -74 50 -145 -5 -71 -29 -109 -81 -129 -32 -12 -43 -11 -84 2 -28 9 -49 12
-51 7 -2 -6 -19 -10 -38 -10 l-34 0 0 198 c0 109 3 202 7 205 8 9 36 9 57 1z
m314 -31 c3 -32 2 -33 -37 -33 -38 0 -41 2 -41 28 0 37 8 44 45 40 26 -3 30
-7 33 -35z m-538 -32 c0 -45 14 -54 78 -51 20 1 43 2 50 1 10 -1 12 -33 10
-143 l-3 -143 -86 -3 c-116 -4 -123 4 -127 138 -4 92 -5 99 -25 102 -32 4 -34
36 -3 48 21 8 26 16 26 43 0 42 5 47 47 47 32 0 33 -1 33 -39z m779 -56 c16
-8 31 -21 34 -28 3 -8 7 -68 8 -133 l3 -119 -34 -3 c-18 -2 -36 1 -39 7 -5 7
-21 5 -50 -5 -81 -28 -151 8 -151 76 0 52 32 78 110 91 74 12 80 14 80 38 0
41 -56 55 -88 23 -25 -25 -81 -36 -88 -18 -9 23 15 56 49 71 42 19 131 19 166
0z m-239 -141 l0 -145 -37 3 -38 3 -3 143 -3 142 41 0 40 0 0 -146z"/>
<path d="M968 400 c-23 -14 -40 -72 -32 -106 8 -37 42 -74 66 -74 35 0 68 45
68 93 0 74 -50 117 -102 87z"/>
<path d="M707 403 c-4 -3 -7 -38 -7 -78 0 -73 10 -95 42 -95 16 0 18 10 18 90
0 88 -1 90 -23 90 -13 0 -27 -3 -30 -7z"/>
<path d="M1380 297 c-41 -11 -45 -15 -45 -42 0 -28 3 -30 40 -33 45 -4 65 14
65 60 0 31 2 31 -60 15z"/>
</g>
</svg>
